<svg width="133" height="56" viewBox="0 0 133 56" fill="none" xmlns="http://www.w3.org/2000/svg">
<g clip-path="url(#clip0_27_410)">
<path d="M18.1563 49.1871H20.3794C21.0258 49.1871 22.3052 49.2761 21.9741 50.7399C21.7114 51.8857 20.7239 52.1113 19.6698 52.1113H17.4886L18.1563 49.1871ZM19.1817 44.6719H25.3303L25.8616 42.3059H17.0378L14.2773 54.474H19.6978C22.3238 54.474 24.2783 53.2926 24.8422 50.8068C25.7247 46.9101 22.3704 46.8277 21.4327 46.8277H18.6896L19.1817 44.6719Z" fill="#00408E"/>
<path d="M35.7968 47.1343L35.2894 49.3818H29.7413L29.1228 52.1113H35.5786L35.0406 54.4733H25.9082L28.6666 42.3059H37.6428L37.1021 44.6719H30.8059L30.248 47.1343H35.7968Z" fill="#00408E"/>
<path d="M36.1787 52.1113C38.6179 52.46 39.2311 50.1629 39.7291 48.1108L41.1276 42.3052H49.5292L46.7662 54.4733H44.0929L46.3206 44.6712H43.1226L42.0766 48.9147C41.4947 51.2586 40.2485 55.1921 35.644 54.4733L36.1787 52.1113Z" fill="#00408E"/>
<path d="M50.4863 44.6719L51.021 42.3059H60.5584L60.0224 44.6719H56.6003L54.3772 54.4733H51.7026L53.9257 44.6719H50.4863Z" fill="#00408E"/>
<path d="M69.1332 47.1343L68.6258 49.3818H63.077L62.4572 52.1113H68.9117L68.3784 54.4733H59.2373L62.0004 42.3059H70.9746L70.4359 44.6719H64.1417L63.5804 47.1343H69.1332Z" fill="#00408E"/>
<path d="M69.5117 52.1113C71.9483 52.46 72.5647 50.1629 73.0661 48.1108L74.462 42.3052H82.8603L80.1025 54.4733H77.4299L79.651 44.6712H76.4543L75.4116 48.9147C74.8297 51.2586 73.5815 55.1921 68.9771 54.4733L69.5117 52.1113Z" fill="#00408E"/>
<path d="M92.4895 47.1343L91.9801 49.3818H86.4334L85.8149 52.1113H92.2721L91.7334 54.4733H82.5977L85.3561 42.3059H94.3329L93.7929 44.6719H87.4987L86.9434 47.1343H92.4895Z" fill="#00408E"/>
<path d="M102.7 42.3059H105.849L100.031 47.8679L103.345 54.4733H100.072L97.399 48.5231H97.3624L96.0145 54.4733H93.3398L96.0989 42.3059H98.7769L97.6131 47.4141H97.6464L102.7 42.3059Z" fill="#00408E"/>
<path d="M110.065 52.46C108.573 52.46 107.412 51.5752 108.134 48.3906C108.761 45.6089 110.075 44.3252 111.911 44.3252C114.653 44.3252 114.09 47.311 113.842 48.3906C113.612 49.4133 112.787 52.46 110.065 52.46ZM109.533 54.8193C113.436 54.8193 115.893 52.0698 116.731 48.3912C117.564 44.702 116.353 41.9558 112.446 41.9558C107.971 41.9558 105.886 45.5601 105.249 48.3912C104.602 51.2238 105.053 54.8193 109.533 54.8193Z" fill="#00408E"/>
<path d="M121.992 45.7809H121.945L119.972 54.4733H117.299L120.055 42.3059H123.817L124.63 50.6642L129.238 42.3059H133L130.243 54.4733H127.57L129.536 45.7809H129.487L124.674 54.4733H122.86L121.992 45.7809Z" fill="#00408E"/>
<path d="M49.5392 4.31372C49.4042 4.29498 49.2699 4.27021 49.1422 4.25147C42.2568 3.1973 34.8666 3.33117 27.3661 4.83109C27.8648 4.01721 28.3656 3.21404 28.879 2.43362C28.9341 2.34661 28.9874 2.25893 29.0459 2.16924C29.1496 1.96711 29.2135 1.74222 29.2135 1.49324C29.2141 0.671989 28.5504 0 27.7278 0C27.3395 0 26.9844 0.157958 26.7224 0.402926C26.6512 0.49596 26.5721 0.584309 26.4949 0.667973C25.0678 2.33858 23.6826 4.13367 22.3447 6.04054C14.1386 8.35101 6.8229 12.1025 0.75411 16.8312C0.712215 16.866 0.668325 16.8988 0.619115 16.9329C0.24472 17.2348 0 17.6959 0 18.22C0 19.1336 0.738815 19.8739 1.64322 19.8739C1.90988 19.8739 2.1659 19.8049 2.38669 19.6858C2.47912 19.6323 2.56956 19.57 2.658 19.5111C7.37086 16.4068 12.6922 13.8554 18.4903 12.0322C12.1555 22.8001 7.11882 36.2894 4.09042 51.4012C4.01394 51.6401 3.95875 51.8978 3.93414 52.1581C3.9255 52.2612 3.91419 52.3723 3.91419 52.4794C3.91419 54.4251 5.48492 56 7.41209 56C8.97351 56 10.2084 54.9619 10.654 53.541C10.7604 53.2029 10.8289 52.9031 10.9093 52.4794C10.9093 52.4741 10.9093 52.4741 10.9093 52.4741C11.8423 46.4262 13.0978 40.6045 14.632 35.0586C15.4573 32.0634 16.3683 29.1505 17.3518 26.3294C17.4729 25.8917 17.6272 25.468 17.806 25.057C19.3302 21.5552 22.8035 19.1002 26.8461 19.1002C32.2977 19.1002 36.7146 23.5531 36.7146 29.0354C36.7146 30.7509 36.2831 32.3679 35.5196 33.7742C35.4119 33.9749 35.2989 34.1711 35.1778 34.3518C34.9644 34.8169 34.836 35.3256 34.836 35.8644C34.836 37.8235 36.4174 39.4131 38.3632 39.4131C39.5449 39.4131 40.5856 38.8241 41.2253 37.9299C41.2945 37.8148 41.3683 37.7077 41.4375 37.5926C42.8626 35.2848 43.6865 32.5547 43.6865 29.6304C43.6865 21.2748 36.958 14.5053 28.6615 14.5053C25.9716 14.5053 23.4526 15.2168 21.2674 16.4611C22.1917 14.411 23.1533 12.4291 24.1495 10.5156C32.4547 8.68365 40.6541 8.5344 48.2039 9.82483C48.3448 9.8429 48.4885 9.8757 48.6315 9.89979C48.7199 9.90917 48.8077 9.91519 48.8981 9.91519C50.4615 9.91519 51.723 8.63613 51.723 7.07664C51.7217 5.72998 50.7874 4.60554 49.5392 4.31372Z" fill="#33B4EE"/>
<path d="M2.13216 18.7033C2.13216 18.7033 1.97854 18.805 1.94064 18.8324C1.58287 19.0674 1.23507 18.6872 1.65203 18.3954C7.12564 14.4203 13.4465 11.3007 20.1882 9.25592C19.8591 9.75924 19.5412 10.2773 19.2286 10.796C13.0867 12.6199 7.34775 15.271 2.13216 18.7033Z" fill="white"/>
<path d="M48.4909 8.88243C48.447 8.88243 48.4078 8.88109 48.3632 8.87172H48.3613C40.9738 7.69105 32.6885 7.79145 24.7378 9.41386C25.0158 8.89247 25.301 8.38044 25.5917 7.86708C33.0124 6.29219 40.6453 6.03584 47.808 7.13017C47.808 7.13017 48.2555 7.21049 48.6372 7.29013V7.2908C49.0116 7.3564 49.2969 7.68235 49.2969 8.07925C49.2962 8.52635 48.9338 8.88243 48.4909 8.88243Z" fill="white"/>
<path d="M31.0383 30.2683C32.1469 26.4224 31.4566 22.6629 29.5521 21.5913L25.2595 36.8182C25.7815 36.8296 26.3368 36.6756 26.8994 36.3631C28.655 35.3966 30.2377 33.0567 31.0383 30.2683ZM22.6846 27.8387C23.7765 24.0297 26.3155 21.244 28.4674 21.2989L24.1802 36.5264C23.6987 36.2613 23.2758 35.8149 22.9439 35.2185C21.983 33.4502 21.8839 30.6264 22.6846 27.8387ZM21.61 27.5248C20.7129 30.6311 20.8452 33.7146 21.9684 35.7573C22.0642 35.9314 22.1706 36.096 22.2776 36.258C19.1927 34.2661 17.6319 30.4069 18.7032 26.6754C19.7679 22.9614 23.1129 20.5472 26.7684 20.5117C24.6304 21.424 22.6148 24.029 21.61 27.5248ZM31.4613 21.8678C34.5369 23.865 36.0883 27.7102 35.0203 31.4356C33.953 35.1523 30.5881 37.5718 26.9266 37.5993C27.0949 37.5263 27.2704 37.446 27.4433 37.3496C29.4729 36.2239 31.2219 33.6959 32.113 30.5836C33.1204 27.0871 32.7933 23.7914 31.4613 21.8678Z" fill="#33B4EE"/>
</g>
<defs>
<clipPath id="clip0_27_410">
<rect width="133" height="56" fill="white"/>
</clipPath>
</defs>
</svg>
