<svg width="114" height="22" viewBox="0 0 114 22" fill="none" xmlns="http://www.w3.org/2000/svg">
<path d="M51.3572 11.0654C51.3572 15.4393 48.7202 17.514 45.4193 17.514H43.4093V14.8785H45.2718C47.2633 14.8785 48.5911 13.7944 48.5911 11.0467C48.5911 8.33645 47.3371 6.99065 45.2164 6.99065C43.1695 6.99065 41.7127 8.26168 41.7127 10.9907V21.9813H38.9466V4.71028H41.6943V6.20561H42.0815C43.0036 4.95327 44.3497 4.39252 45.7697 4.39252C48.8124 4.39252 51.3572 6.63551 51.3572 11.0654ZM33.2853 9.92523L31.4597 9.73832C30.0214 9.60748 29.2653 9.21495 29.2653 8.35514C29.2653 7.34579 30.2426 6.76636 31.6257 6.76636C33.0641 6.76636 33.9861 7.45794 34.0598 8.42991H36.6969C36.5862 5.92523 34.6868 4.39252 31.6441 4.39252C28.583 4.39252 26.5176 6.03738 26.5176 8.4486C26.5176 10.4673 27.7716 11.7757 30.6299 12.0561L32.4924 12.243C33.6173 12.3551 34.3733 12.5794 34.3733 13.6822C34.3733 14.6729 33.6726 15.3832 31.8101 15.3832C30.0951 15.3832 29.2468 14.5981 28.9518 13.5327H26.0935C26.3701 15.9439 28.3801 17.8131 31.8101 17.8131C35.0372 17.8131 37.121 16.0935 37.121 13.5327C37.1026 11.3084 35.6457 10.1495 33.2853 9.92523ZM61.9974 13.5514C61.5733 14.5607 60.5406 15.3084 59.0654 15.3084C57.0553 15.3084 55.5616 13.9813 55.5616 11.1215C55.5616 8.39252 56.9447 6.8785 59.1022 6.8785C61.0201 6.8785 62.1081 8.03738 62.2187 9.79439H57.2766V11.8131H64.9295V10.486C64.9295 6.80374 62.5138 4.41121 59.0838 4.41121C55.8936 4.41121 52.8324 6.61682 52.8324 11.1215C52.8324 15.6262 55.8936 17.8318 59.0838 17.8318C61.9974 17.8318 64.0996 16 64.7451 13.5514H61.9974ZM18.6435 4.39252C15.6377 4.39252 13.3879 5.98131 13.1113 8.42991H16.0618C16.2646 7.53271 17.076 6.85981 18.625 6.85981C20.6166 6.85981 21.2621 7.92523 21.2621 9.21495V13.5888C20.1372 14.8972 18.8279 15.4953 17.5186 15.4953C16.154 15.4953 15.2135 14.8224 15.2135 13.6449C15.2135 12.5047 15.9511 11.7944 17.3526 11.7944H19.5471V9.79439H17.2604C14.1255 9.79439 12.3552 11.3832 12.3552 13.8318C12.3552 16.1122 14.0518 17.8318 16.8547 17.8318C18.4222 17.8318 19.8052 17.1963 20.8379 16.4299H21.2252V17.514H23.9728V8.97196C24.0466 5.81308 21.9259 4.39252 18.6435 4.39252ZM0 17.514H2.74765V0H0V17.514ZM11.5438 4.71028H8.18764L4.18602 10.0561V11.7196L8.29829 17.514H11.7098L6.87836 10.8785L11.5438 4.71028ZM110.957 4.71028L108.708 9.7757C108.154 10.9907 107.638 12.1869 107.472 12.9907H107.085C106.919 12.1869 106.384 11.028 105.831 9.81308L103.581 4.71028H100.538L105.831 16.2056L103.212 22H106.144L114 4.71028H110.957ZM99.9298 4.71028H96.5736L92.572 10.0374V11.7009L96.6842 17.4953H100.096L95.2828 10.8598L99.9298 4.71028ZM82.7062 9.92523L80.8806 9.73832C79.4423 9.60748 78.6862 9.21495 78.6862 8.35514C78.6862 7.34579 79.6635 6.76636 81.0466 6.76636C82.485 6.76636 83.407 7.45794 83.4808 8.42991H86.1178C86.0071 5.92523 84.1077 4.39252 81.065 4.39252C78.0039 4.39252 75.9385 6.03738 75.9385 8.4486C75.9385 10.4673 77.1925 11.7757 80.0508 12.0561L81.9133 12.243C83.0382 12.3551 83.7942 12.5794 83.7942 13.6822C83.7942 14.6729 83.0935 15.3832 81.231 15.3832C79.516 15.3832 78.6677 14.5981 78.3727 13.5327H75.5144C75.791 15.9439 77.801 17.8131 81.231 17.8131C84.4581 17.8131 86.5419 16.0935 86.5419 13.5327C86.5419 11.3084 85.0666 10.1495 82.7062 9.92523ZM88.386 17.514H91.1336V0H88.386V17.514ZM70.2404 6.20561H69.8531V4.71028H67.1055V17.514H69.8531V10.8224C69.8531 8.54206 70.8858 7.21495 72.9511 7.21495H74.6846V4.39252H73.6703C71.771 4.39252 70.9596 5.1215 70.2404 6.20561Z" fill="white"/>
</svg>
