<svg width="25" height="25" viewBox="0 0 25 25" fill="none" xmlns="http://www.w3.org/2000/svg">
<path d="M12.5002 4.16671C7.89779 4.16671 4.16683 7.89767 4.16683 12.5C4.16683 17.1024 7.89779 20.8334 12.5002 20.8334C17.1026 20.8334 20.8335 17.1024 20.8335 12.5C20.8335 7.89767 17.1026 4.16671 12.5002 4.16671ZM2.0835 12.5C2.0835 6.74707 6.74719 2.08337 12.5002 2.08337C18.2531 2.08337 22.9168 6.74707 22.9168 12.5C22.9168 18.253 18.2531 22.9167 12.5002 22.9167C6.74719 22.9167 2.0835 18.253 2.0835 12.5Z" fill="#E0E0E2"/>
<path fill-rule="evenodd" clip-rule="evenodd" d="M17.4031 9.15922C17.8099 9.56602 17.8099 10.2256 17.4031 10.6324L12.1947 15.8407C11.7879 16.2475 11.1284 16.2475 10.7216 15.8407L7.5966 12.7157C7.1898 12.3089 7.1898 11.6494 7.5966 11.2426C8.0034 10.8358 8.66294 10.8358 9.06974 11.2426L11.4582 13.631L15.9299 9.15922C16.3367 8.75243 16.9963 8.75243 17.4031 9.15922Z" fill="#009982"/>
</svg>
