<svg width="83" height="83" viewBox="0 0 83 83" fill="none" xmlns="http://www.w3.org/2000/svg">
<path d="M19.6769 44.0743H30.4571V51.8718H15.6566C15.3355 51.8718 15.0746 51.6156 15.0746 51.2946V48.5518C15.0746 48.234 15.3355 47.9714 15.6566 47.9714H19.6769V44.0743ZM5.21021 37.9044V5.17129C5.21021 4.8114 5.50526 4.51961 5.86515 4.51961H45.9774C46.3374 4.51961 46.6325 4.8114 46.6325 5.17129V18.8014H51.8394V17.7931V2.26953C51.8394 1.01804 50.8245 0 49.5698 0H2.27278C1.01808 0 0 1.01804 0 2.26953V18.6037V19.6087V40.8354C0 42.09 1.01808 43.1081 2.27278 43.1081H30.4571V38.5561H5.86515C5.50526 38.5561 5.21021 38.2643 5.21021 37.9044ZM63.8517 25.8727H51.8394H46.6325H34.6736V38.5561V43.1081V47.9714V51.8718V59.7211H50.5749V61.6858H47.7315C47.5046 61.6858 47.3165 61.8706 47.3165 62.0976V62.305C47.3165 62.5353 47.5046 62.7201 47.7315 62.7201H50.5749V65.489H34.6071C33.0379 65.489 31.754 64.205 31.754 62.6391V51.8718V44.0743V43.1081V38.5561V22.9514C31.754 21.3854 33.0379 20.0983 34.6071 20.0983H46.6325H51.8394H63.9165C65.4858 20.0983 66.7696 21.3854 66.7696 22.9514V36.3157H63.8517V25.8727ZM49.9557 22.4975C49.9557 22.0793 49.6153 21.7389 49.197 21.7389C48.7787 21.7389 48.4383 22.0793 48.4383 22.4975C48.4383 22.9158 48.7787 23.2529 49.197 23.2529C49.6153 23.2529 49.9557 22.9158 49.9557 22.4975ZM83 42.1354V78.1399V78.4091V78.4739C82.9936 80.9736 80.9769 82.9935 78.4739 83H56.3979C53.8982 82.9935 51.8782 80.9736 51.8718 78.4739V66.7891V65.489V59.7211V58.4242V42.1354C51.8782 39.6357 53.8982 37.6126 56.3979 37.6126H62.5516H63.8517H66.7696H68.0665H78.4739C80.9769 37.6126 82.9936 39.6357 83 42.1354ZM64.8307 39.3245C64.8307 39.5903 65.0448 39.8043 65.3107 39.8043H66.7696H68.0665H69.5611C69.827 39.8043 70.041 39.5903 70.041 39.3245C70.041 39.0586 69.827 38.8446 69.5611 38.8446H68.0665H66.7696H65.3107C65.0448 38.8446 64.8307 39.0586 64.8307 39.3245ZM68.8544 79.4368C68.8544 78.649 68.2188 78.0167 67.4343 78.0167C66.653 78.0167 66.0174 78.649 66.0174 79.4368C66.0174 80.2181 66.653 80.8536 67.4343 80.8536C68.2188 80.8537 68.8544 80.2181 68.8544 79.4368ZM79.7092 42.5472C79.7092 41.8793 79.145 41.3119 78.4739 41.3119H68.0665H66.7696H63.8517H62.5516H56.3979C55.73 41.3119 55.1658 41.8793 55.1626 42.5472V58.4242V59.7211V65.489V66.7891V74.7713C55.1658 75.4359 55.73 76.0033 56.3979 76.0033H78.4739C79.1192 76.0033 79.6638 75.4781 79.7028 74.8427L79.7092 74.8491V42.5472Z" fill="#015A9C"/>
</svg>
