<svg width="50" height="83" viewBox="0 0 50 83" fill="none" xmlns="http://www.w3.org/2000/svg">
<path d="M42.1484 0H7.13281C5.24107 0 3.42681 0.751491 2.08915 2.08915C0.75149 3.42681 0 5.24107 0 7.13281V75.8672C0 77.7589 0.75149 79.5732 2.08915 80.9109C3.42681 82.2485 5.24107 83 7.13281 83H42.1484C44.0402 83 45.8544 82.2485 47.1921 80.9109C48.5298 79.5732 49.2812 77.7589 49.2812 75.8672V7.13281C49.2812 5.24107 48.5298 3.42681 47.1921 2.08915C45.8544 0.751491 44.0402 0 42.1484 0V0ZM3.89062 14.713H45.3906V64.5714H3.89062V14.713ZM7.13281 3.89062H42.1484C42.5742 3.89062 42.9958 3.97449 43.3892 4.13742C43.7825 4.30036 44.1399 4.53918 44.441 4.84024C44.7421 5.1413 44.9809 5.49872 45.1438 5.89208C45.3068 6.28544 45.3906 6.70704 45.3906 7.13281V10.8224H3.89062V7.13281C3.89062 6.27293 4.23221 5.44827 4.84024 4.84024C5.44827 4.23221 6.27293 3.89062 7.13281 3.89062ZM42.1484 79.1094H7.13281C6.27293 79.1094 5.44827 78.7678 4.84024 78.1598C4.23221 77.5517 3.89062 76.7271 3.89062 75.8672V68.462H45.3906V75.8672C45.3906 76.293 45.3068 76.7146 45.1438 77.1079C44.9809 77.5013 44.7421 77.8587 44.441 78.1598C44.1399 78.4608 43.7825 78.6996 43.3892 78.8626C42.9958 79.0255 42.5742 79.1094 42.1484 79.1094Z" fill="#015A9C"/>
<path d="M24.6406 77.7539C26.7894 77.7539 28.5312 76.012 28.5312 73.8633C28.5312 71.7145 26.7894 69.9727 24.6406 69.9727C22.4919 69.9727 20.75 71.7145 20.75 73.8633C20.75 76.012 22.4919 77.7539 24.6406 77.7539Z" fill="#015A9C"/>
<path d="M19.5376 9.2207H29.7505C30.2664 9.2207 30.7612 9.01575 31.126 8.65093C31.4908 8.28612 31.6958 7.79132 31.6958 7.27539C31.6958 6.75946 31.4908 6.26466 31.126 5.89985C30.7612 5.53503 30.2664 5.33008 29.7505 5.33008H19.5376C19.0217 5.33008 18.5269 5.53503 18.1621 5.89985C17.7972 6.26466 17.5923 6.75946 17.5923 7.27539C17.5923 7.79132 17.7972 8.28612 18.1621 8.65093C18.5269 9.01575 19.0217 9.2207 19.5376 9.2207Z" fill="#015A9C"/>
</svg>
