<svg width="93" height="67" viewBox="0 0 93 67" fill="none" xmlns="http://www.w3.org/2000/svg">
<path d="M76.9953 42.3613C80.1314 39.7677 82.186 35.7694 82.186 31.3387C82.186 23.8823 76.1302 17.2903 69.2093 17.2903C62.2884 17.2903 56.2326 23.8823 56.2326 31.3387C56.2326 35.7694 58.2872 39.7677 61.4233 42.3613C60.0174 42.9016 58.7198 43.4419 57.4221 44.1984C53.3128 39.3355 47.9058 35.5532 41.6337 33.7161C46.3919 30.3661 49.7442 24.6387 49.7442 18.371C49.7442 8.5371 41.6337 0 32.4419 0C23.25 0 15.1395 8.5371 15.1395 18.371C15.1395 24.6387 18.4919 30.3661 23.25 33.7161C9.8407 37.7145 0 50.1419 0 64.8387C0 66.0274 0.973256 67 2.16279 67H90.8372C92.0267 67 93 66.0274 93 64.8387C93 54.4645 86.2953 45.6032 76.9953 42.3613ZM60.5581 31.3387C60.5581 26.8 64.343 21.6129 69.2093 21.6129C74.0756 21.6129 77.8605 26.8 77.8605 31.3387C77.8605 35.8774 74.0756 41.0645 69.2093 41.0645C64.343 41.0645 60.5581 35.8774 60.5581 31.3387ZM19.4651 18.371C19.4651 11.779 24.9802 4.32258 32.4419 4.32258C39.9035 4.32258 45.4186 11.779 45.4186 18.371C45.4186 24.9629 39.9035 32.4194 32.4419 32.4194C24.9802 32.4194 19.4651 24.9629 19.4651 18.371ZM4.43372 62.6774C5.51512 48.1968 17.7349 36.7419 32.4419 36.7419C47.257 36.7419 59.3686 48.1968 60.45 62.6774H4.43372ZM64.7756 62.6774C64.4512 57.2742 62.7209 52.0871 59.9093 47.7645C62.7209 46.2516 65.857 45.3871 69.2093 45.3871C79.2663 45.3871 87.4849 52.9516 88.5663 62.6774H64.7756Z" fill="#015A9C"/>
</svg>
