<svg width="81" height="68" viewBox="0 0 81 68" fill="none" xmlns="http://www.w3.org/2000/svg">
<path d="M76.6013 0.119143V0H76.2047H4.75543H4.3589V0.119143C2.02129 0.280752 0.277279 2.15137 0 4.42174V4.82137V52.1757C0 53.0939 0.237573 53.8679 0.634102 54.565C1.54641 56.1807 2.8931 56.997 4.75557 56.997H30.8306V63.6125H25.8773C24.649 63.6125 23.6979 64.5733 23.6979 65.8063C23.6979 67.0393 24.649 68 25.8773 68H55.0831C56.3115 68 57.3024 67.0391 57.3024 65.8063C57.3024 64.5732 56.3116 63.6125 55.0831 63.6125H50.1298V56.997H76.2047C78.068 56.997 79.4266 56.1807 80.3262 54.565C80.7345 53.8338 81 53.0515 81 52.1757V4.8215V4.42188C80.7226 2.15137 78.8601 0.280752 76.6013 0.119143ZM76.6013 4.8215V52.1758C76.6013 52.4564 76.4828 52.5754 76.2047 52.5754H4.75543C4.47815 52.5754 4.3589 52.4564 4.3589 52.1758V4.8215V4.42188H76.6011V4.8215H76.6013Z" fill="#015A9C"/>
</svg>
